<?xml version="1.0" standalone="no"?>
<!DOCTYPE svg PUBLIC "-//W3C//DTD SVG 20010904//EN"
 "http://www.w3.org/TR/2001/REC-SVG-20010904/DTD/svg10.dtd">
<svg version="1.0" xmlns="http://www.w3.org/2000/svg"
 width="180.000000pt" height="180.000000pt" viewBox="0 0 180.000000 180.000000"
 preserveAspectRatio="xMidYMid meet">
<metadata>
Created by potrace 1.14, written by Peter Selinger 2001-2017
</metadata>
<g transform="translate(0.000000,180.000000) scale(0.100000,-0.100000)"
fill="#000000" stroke="none">
<path d="M230 1035 l0 -25 195 0 195 0 0 25 0 25 -195 0 -195 0 0 -25z"/>
<path d="M1190 1035 l0 -25 195 0 195 0 0 25 0 25 -195 0 -195 0 0 -25z"/>
<path d="M740 500 l0 -110 25 0 25 0 0 110 0 110 -25 0 -25 0 0 -110z"/>
<path d="M1020 500 l0 -110 25 0 25 0 0 110 0 110 -25 0 -25 0 0 -110z"/>
</g>
</svg>
